<svg xmlns="http://www.w3.org/2000/svg" version="1.1" xmlns:xlink="http://www.w3.org/1999/xlink" xmlns:svgjs="http://svgjs.com/svgjs" width="512" height="512" x="0" y="0" viewBox="0 0 512.0005 512" style="enable-background:new 0 0 512 512" xml:space="preserve" class=""><g><path xmlns="http://www.w3.org/2000/svg" d="m254.570312 472.617188c-4.167968 0-7.601562-3.316407-7.722656-7.507813-.121094-4.265625 3.238282-7.820313 7.503906-7.941406 4.273438-.195313 7.863282 3.113281 8.050782 7.378906.191406 4.261719-3.121094 7.871094-7.386719 8.058594l-.222656.007812c-.074219.003907-.148438.003907-.222657.003907zm-31.070312-1.164063c-.304688 0-.605469-.015625-.914062-.050781l-.019532-.003906c-4.246094-.425782-7.320312-4.207032-6.894531-8.457032.425781-4.246094 4.238281-7.335937 8.480469-6.914062l.238281.023437c4.238281.5 7.269531 4.339844 6.769531 8.578125-.460937 3.933594-3.796875 6.824219-7.660156 6.824219zm62.070312-2.382813c-3.617187 0-6.847656-2.550781-7.570312-6.234374-.828125-4.1875 1.898438-8.25 6.085938-9.074219l.144531-.027344c4.191406-.800781 8.238281 1.949219 9.039062 6.140625.800781 4.1875-1.945312 8.238281-6.136719 9.039062l-.058593.011719c-.507813.097657-1.007813.144531-1.503907.144531zm-92.726562-3.503906c-.671875 0-1.355469-.089844-2.039062-.273437l-.042969-.011719c-4.121094-1.097656-6.582031-5.328125-5.488281-9.449219 1.09375-4.125 5.320312-6.582031 9.441406-5.492187l.160156.042968c4.117188 1.125 6.542969 5.371094 5.417969 9.488282-.9375 3.4375-4.050781 5.695312-7.449219 5.695312zm122.835938-4.75c-3.160157 0-6.121094-1.945312-7.265626-5.085937-1.457031-4.011719.613282-8.445313 4.621094-9.902344l.128906-.042969c4.011719-1.441406 8.4375.640625 9.882813 4.65625s-.644531 8.441406-4.660156 9.886719l-.066407.023437c-.875.316407-1.765624.464844-2.640624.464844zm-152.265626-5.789062c-1.054687 0-2.125-.21875-3.152343-.683594l-.105469-.046875c-3.886719-1.761719-5.609375-6.339844-3.847656-10.226563 1.761718-3.886718 6.335937-5.609374 10.226562-3.847656 3.890625 1.757813 5.660156 6.351563 3.90625 10.242188-1.292968 2.863281-4.089844 4.5625-7.027344 4.5625zm180.726563-6.980469c-2.765625 0-5.433594-1.484375-6.824219-4.089844-2.011718-3.765625-.585937-8.449219 3.179688-10.457031 3.738281-2.054688 8.4375-.691406 10.496094 3.046875 2.054687 3.738281.695312 8.4375-3.046876 10.492187l-.175781.097657c-1.160156.617187-2.402343.910156-3.628906.910156zm70.175781-69.070313.050782.035157-.816407-.582031zm-356.671875-33.679687c-3.050781 0-5.941406-1.820313-7.164062-4.820313l-.019531-.054687c-1.628907-3.945313.25-8.464844 4.191406-10.089844 3.945312-1.628906 8.464844.25 10.089844 4.191407l.054687.136718c1.609375 3.953125-.296875 8.460938-4.25 10.066406-.949219.386719-1.9375.570313-2.902344.570313zm383.53125-14.828125c-.808593 0-1.632812-.128906-2.445312-.398438-4.019531-1.339843-6.207031-5.667968-4.914063-9.695312 1.261719-4.058594 5.566406-6.351562 9.632813-5.117188 4.082031 1.242188 6.386719 5.542969 5.152343 9.621094l-.097656.304688c-1.078125 3.238281-4.09375 5.285156-7.328125 5.285156zm-392.980469-14.917969c-3.496093 0-6.664062-2.386719-7.511718-5.933593l-.023438-.101563c-.988281-4.152344 1.570313-8.320313 5.722656-9.3125 4.152344-.992187 8.320313 1.570313 9.308594 5.722656l.023438.101563c.992187 4.148437-1.570313 8.316406-5.71875 9.308594-.605469.144531-1.207032.214843-1.800782.214843zm400.085938-15.472656c-.445312 0-.894531-.039063-1.351562-.121094-4.171876-.734375-6.96875-4.695312-6.28125-8.863281.648437-4.199219 4.566406-7.097656 8.769531-6.480469 4.21875.625 7.136719 4.535157 6.515625 8.757813l-.050782.320312c-.660156 3.746094-3.921874 6.386719-7.601562 6.386719zm-404.855469-15.386719c-3.964843 0-7.335937-3.023437-7.6875-7.042968l-.023437-.320313c-.25-4.261719 3-7.914063 7.261718-8.167969 4.222657-.257812 7.867188 2.957032 8.160157 7.175782.339843 4.234374-2.800781 7.964843-7.039063 8.328124-.226562.019532-.449218.027344-.671875.027344zm407.222657-15.734375c-4.269532 0-7.726563-3.457031-7.726563-7.726562v-.101563c0-.054687 0-.109375 0-.160156 0-.066406 0-.136719 0-.203125v-.101563c0-4.269531 3.457031-7.730468 7.726563-7.730468 4.265624 0 7.726562 3.460937 7.726562 7.730468v.101563c0 .054687 0 .109375-.003906.160156.003906.066407.003906.132813.003906.203125v.101563c0 4.269531-3.457031 7.726562-7.726562 7.726562zm-407.242188-15.460937c-.222656 0-.449219-.011719-.675781-.03125-4.246094-.367188-7.390625-4.101563-7.03125-8.34375.296875-4.21875 3.90625-7.433594 8.160156-7.167969 4.261719.25 7.511719 3.90625 7.261719 8.164063l-.027344.320312c-.347656 4.023438-3.722656 7.058594-7.6875 7.058594zm404.816406-16.117188c-3.679687 0-6.9375-2.636718-7.597656-6.386718l-.054688-.320313c-.617187-4.222656 2.300782-8.148437 6.523438-8.769531 4.199219-.621094 8.132812 2.289062 8.761719 6.5.683593 4.164062-2.109375 8.117187-6.28125 8.855468-.453125.082032-.90625.121094-1.351563.121094zm1.296875-8.023437-1.304687.191406zm-401.425781-6.710938c-.59375 0-1.199219-.070312-1.800781-.214843-4.144531-.988282-6.707031-5.148438-5.726563-9.292969.914063-4.121094 4.980469-6.753907 9.125-5.886719 4.175782.875 6.855469 4.96875 5.980469 9.144531l-.070313.316407c-.84375 3.546874-4.011718 5.933593-7.507812 5.933593zm393.039062-15.609375c-3.25 0-6.285156-2.078125-7.367187-5.324218l-.085937-.269532c-1.257813-4.078125 1.03125-8.402344 5.113281-9.65625 4.082031-1.257812 8.398437 1.03125 9.65625 5.113282l.003906.011718c1.347656 4.050782-.851563 8.382813-4.902344 9.730469-.796875.269531-1.613281.394531-2.417969.394531zm-383.671874-14.183594c-.96875 0-1.953126-.183593-2.90625-.570312-3.953126-1.605469-5.855469-6.113281-4.25-10.066406l.039062-.09375c1.605469-3.953125 6.109375-5.859375 10.066406-4.253906 3.953125 1.605468 5.855469 6.113281 4.25 10.066406l-.039062.097656c-1.21875 3-4.109375 4.820312-7.160156 4.820312zm371.953124-14.757812c-2.8125 0-5.53125-1.542969-6.90625-4.207031l-.117187-.226563c-1.882813-3.832031-.304687-8.460937 3.527344-10.34375 3.828125-1.882812 8.457031-.304687 10.34375 3.523438l.003906.015625c1.960937 3.789062.457031 8.421875-3.335937 10.378906-1.125.582031-2.328126.859375-3.515626.859375zm-358.117187-13.234375c-1.371094 0-2.761719-.363281-4.015625-1.132813-3.636719-2.214843-4.789062-6.953124-2.589844-10.589843 2.128906-3.636719 6.796875-4.902344 10.476563-2.816407 3.710937 2.105469 5.015625 6.820313 2.914062 10.53125-.058593.101563-.121093.203126-.183593.304688-1.453126 2.386719-3.996094 3.703125-6.601563 3.703125zm342.074219-13.570313c-2.472656 0-4.90625-1.1875-6.398438-3.386718-2.480468-3.472656-1.65625-8.265625 1.820313-10.746094 3.46875-2.480469 8.320312-1.640625 10.800781 1.832031l.164062.234375c2.394532 3.53125 1.476563 8.335938-2.054687 10.734375-1.328125.902344-2.835937 1.332031-4.332031 1.332031zm-324.121094-11.972656c-1.742188 0-3.488281-.585937-4.933594-1.78125-3.28125-2.726562-3.734375-7.597656-1.007812-10.882812l.066406-.078125c2.726562-3.285157 7.59375-3.734375 10.878906-1.011719 3.285156 2.726562 3.738282 7.597656 1.011719 10.882812l-.066406.078126c-1.527344 1.84375-3.730469 2.792968-5.949219 2.792968zm304.214844-12.066406c-2.03125 0-4.058594-.792969-5.574219-2.375-2.988281-3.046875-2.945313-7.949219.105469-10.9375 3.042968-2.984375 7.929687-2.941406 10.914062.105469l.128906.128906c2.957032 3.078125 2.855469 7.972656-.222656 10.925781-1.5 1.441406-3.425781 2.152344-5.351562 2.152344zm-282.589844-10.449219c-2.140625 0-4.265625-.878906-5.792969-2.605469-2.828125-3.195312-2.527343-8.078124.667969-10.90625l.03125-.027343c3.175781-2.839844 8.0625-2.582031 10.910156.59375 2.84375 3.171875 2.59375 8.042969-.574218 10.894531l-.125.113281c-1.472657 1.300781-3.300782 1.9375-5.117188 1.9375zm259.257812-10.292969c-1.585937 0-3.179687-.484374-4.558593-1.492187l-.261719-.199219c-3.367188-2.621094-3.976562-7.472656-1.355469-10.84375 2.617188-3.363281 7.457031-3.972656 10.824219-1.367187 3.375 2.535156 4.09375 7.324219 1.59375 10.738281-1.515625 2.070312-3.863281 3.164062-6.242188 3.164062zm.695313-8.78125-.773437.992188zm-235.171875.105469c-2.550781 0-5.046875-1.261719-6.519531-3.570312-2.292969-3.59375-1.242188-8.359375 2.339843-10.660157 3.523438-2.328124 8.277344-1.394531 10.652344 2.109376 2.398438 3.53125 1.476563 8.335937-2.054687 10.730468l-.269531.179688c-1.285157.820312-2.722657 1.210937-4.148438 1.210937zm208.246094-8.285156c-1.21875 0-2.457032-.289063-3.609375-.902344l-.183594-.101562c-3.738281-2.054688-5.101563-6.753907-3.046875-10.492188s6.753906-5.101562 10.492188-3.046875l.023437.011719c3.730469 2.035156 5.140625 6.71875 3.125 10.460937-1.398437 2.59375-4.054687 4.070313-6.800781 4.070313zm-180.867188-6.683594c-2.945312 0-5.761718-1.691406-7.050781-4.546875-1.757813-3.886718-.03125-8.460937 3.855469-10.21875l.179687-.078125c3.90625-1.714843 8.460938.070313 10.175781 3.980469 1.707032 3.910156-.074218 8.464844-3.984374 10.175781-1.03125.464844-2.113282.6875-3.175782.6875zm0 0" fill="#a7c7d3" data-original="#a7c7d3"></path><path xmlns="http://www.w3.org/2000/svg" d="m306.519531 411.125-116.332031-116.332031c-7.292969-7.289063-7.300781-19.085938-.019531-26.363281 2.875-2.875 6.46875-4.617188 10.203125-5.207032 5.699218-.917968 11.75.820313 16.160156 5.230469l-29.957031-29.957031c-3.640625-3.640625-5.46875-8.414063-5.46875-13.175782 0-.992187.078125-1.988281.238281-2.980468.597656-3.742188 2.332031-7.328125 5.210938-10.207032 2.847656-2.847656 6.378906-4.574218 10.066406-5.1875 5.019531-.835937 10.308594.386719 14.523437 3.671876l-11.398437-11.398438c-3.644532-3.644531-5.472656-8.429688-5.472656-13.195312-.007813-1.011719.082031-2.03125.25-3.027344.597656-3.71875 2.328124-7.285156 5.191406-10.148438 2.878906-2.878906 6.46875-4.621094 10.222656-5.210937 5.695312-.917969 11.75.824219 16.15625 5.230469l13.054688 13.054687c-4.398438-4.398437-6.148438-10.460937-5.230469-16.15625.589843-3.738281 2.324219-7.324219 5.210937-10.207031 7.269532-7.269532 19.078125-7.261719 26.363282.023437l75.601562 75.601563.210938-.300782c3.832031-3.832031 8.347656-6.554687 13.164062-8.179687 11.886719-4.007813 25.570312-1.269531 35.054688 8.21875l35.25 35.25c6.777343 6.773437 10.578124 15.953125 10.59375 25.523437l.019531 22.054688c.007812 10.304688 4.109375 20.191406 11.410156 27.492188l7.859375 7.859374-89.910156 89.910157-10.046875-10.046875c-6.679688-6.679688-15.566407-10.703125-24.984375-11.320313-8.75-.574219-16.988282-4.3125-23.195313-10.519531zm0 0" fill="#fecbaa" data-original="#fecbaa" class=""></path><path xmlns="http://www.w3.org/2000/svg" d="m358.902344 448.851562 102.054687-102.054687c3.363281-3.363281 8.8125-3.363281 12.175781 0l36.34375 36.34375c3.363282 3.363281 3.363282 8.816406 0 12.175781l-102.050781 102.054688c-3.363281 3.363281-8.816406 3.363281-12.175781 0l-36.347656-36.34375c-3.359375-3.363282-3.359375-8.816406 0-12.175782zm0 0" fill="#fdd559" data-original="#fdd559" class=""></path><path xmlns="http://www.w3.org/2000/svg" d="m463.671875 392.605469c3.019531 3.019531 7.90625 3.023437 10.917969.011719 3.011718-3.011719 3.007812-7.902344-.007813-10.917969-3.019531-3.019531-7.90625-3.023438-10.917969-.011719-3.011718 3.015625-3.007812 7.902344.007813 10.917969zm0 0" fill="#ff8812" data-original="#ff8812"></path><path xmlns="http://www.w3.org/2000/svg" d="m367.125 261.210938-26.03125-26.027344.210938-.300782c3.832031-3.832031 8.347656-6.554687 13.164062-8.179687l23.582031 23.582031c3.015625 3.015625 3.015625 7.910156 0 10.925782-3.023437 3.023437-7.910156 3.015624-10.925781 0zm0 0" fill="#ffae85" data-original="#ffae85" class=""></path><path xmlns="http://www.w3.org/2000/svg" d="m205.480469 411.136719 116.332031-116.332031c7.292969-7.292969 7.300781-19.085938.023438-26.363282-2.878907-2.878906-6.46875-4.621094-10.207032-5.210937-5.699218-.917969-11.75.824219-16.160156 5.230469l29.957031-29.953126c3.640625-3.640624 5.46875-8.414062 5.46875-13.179687 0-.988281-.078125-1.988281-.238281-2.976563-.597656-3.746093-2.332031-7.328124-5.210938-10.207031-2.847656-2.847656-6.378906-4.574219-10.066406-5.1875-5.019531-.835937-10.308594.386719-14.523437 3.671875l11.398437-11.402344c3.644532-3.640624 5.472656-8.425781 5.472656-13.191406.007813-1.015625-.082031-2.035156-.25-3.03125-.59375-3.714844-2.328124-7.285156-5.191406-10.148437-2.878906-2.875-6.46875-4.617188-10.222656-5.207031-5.695312-.917969-11.75.820312-16.15625 5.230468l-13.054688 13.054688c4.398438-4.402344 6.148438-10.460938 5.230469-16.160156-.589843-3.734376-2.324219-7.320313-5.210937-10.207032-7.269532-7.269531-19.078125-7.261718-26.363282.023438l-75.601562 75.601562-.210938-.296875c-3.832031-3.832031-8.347656-6.554687-13.164062-8.179687-11.890625-4.007813-25.570312-1.269532-35.054688 8.214844l-35.25 35.253906c-6.777343 6.773437-10.578124 15.953125-10.59375 25.523437l-.023437 22.050781c-.003906 10.308594-4.105469 20.195313-11.40625 27.496094l-7.859375 7.859375 89.910156 89.910157 10.046875-10.046876c6.679688-6.679687 15.566407-10.703124 24.984375-11.320312 8.75-.574219 16.988282-4.3125 23.195313-10.519531zm0 0" fill="#fecbaa" data-original="#fecbaa" class=""></path><path xmlns="http://www.w3.org/2000/svg" d="m153.097656 448.859375-102.054687-102.050781c-3.363281-3.363282-8.8125-3.363282-12.175781 0l-36.34375 36.34375c-3.363282 3.363281-3.363282 8.8125 0 12.175781l102.050781 102.054687c3.363281 3.363282 8.816406 3.363282 12.179687 0l36.34375-36.34375c3.363282-3.363281 3.363282-8.816406 0-12.179687zm0 0" fill="#ff84a7" data-original="#ff84a7" class=""></path><path xmlns="http://www.w3.org/2000/svg" d="m118.265625 462.546875c3.019531-3.019531 3.023437-7.90625.011719-10.917969-3.011719-3.015625-7.902344-3.011718-10.917969.007813-3.019531 3.015625-3.023437 7.90625-.011719 10.917969 3.015625 3.011718 7.902344 3.007812 10.917969-.007813zm0 0" fill="#ef6085" data-original="#ef6085" class=""></path><path xmlns="http://www.w3.org/2000/svg" d="m144.878906 261.222656 26.027344-26.03125-.210938-.296875c-3.832031-3.832031-8.347656-6.554687-13.164062-8.179687l-23.582031 23.578125c-3.015625 3.015625-3.015625 7.914062 0 10.929687 3.023437 3.023438 7.910156 3.015625 10.929687 0zm0 0" fill="#ffae85" data-original="#ffae85" class=""></path><path xmlns="http://www.w3.org/2000/svg" d="m330.402344 132.335938v164.519531c0 10.3125-8.332032 18.65625-18.625 18.65625-4.070313 0-7.839844-1.308594-10.902344-3.535157-4.675781-3.378906-7.726562-8.890624-7.726562-15.121093v42.363281c0 5.148438-2.082032 9.816406-5.449219 13.183594-.699219.703125-1.464844 1.351562-2.277344 1.9375-3.070313 2.226562-6.828125 3.535156-10.898437 3.535156-4.027344 0-7.75-1.277344-10.789063-3.449219-4.140625-2.957031-7.015625-7.5625-7.671875-12.871093v16.125c0 5.152343-2.09375 9.828124-5.460938 13.195312-.710937.722656-1.496093 1.382812-2.316406 1.96875-3.050781 2.207031-6.800781 3.503906-10.851562 3.503906-4.066406 0-7.839844-1.308594-10.910156-3.542968-4.675782-3.378907-7.726563-8.890626-7.726563-15.125v-18.460938c0 6.222656-3.046875 11.742188-7.726563 15.121094-3.058593 2.226562-6.820312 3.535156-10.898437 3.535156-10.285156 0-18.628906-8.355469-18.628906-18.65625v-106.917969l-.359375.0625c-5.417969 0-10.539063-1.269531-15.09375-3.523437-11.238282-5.574219-18.976563-17.183594-18.976563-30.597656v-49.855469c0-9.578125 3.800781-18.757813 10.558594-25.539063l15.578125-15.605468c7.285156-7.296876 11.375-17.183594 11.375-27.507813v-11.117187h127.148438v14.207031c0 9.445312 3.441406 18.574219 9.664062 25.671875 5.78125 6.59375 8.964844 15.0625 8.964844 23.839844zm0 0" fill="#fedfc5" data-original="#fedfc5" class=""></path><path xmlns="http://www.w3.org/2000/svg" d="m321.835938 268.441406c-2.878907-2.878906-6.46875-4.617187-10.207032-5.210937-5.699218-.917969-11.75.824219-16.160156 5.234375l29.957031-29.957032c3.640625-3.640624 5.472657-8.414062 5.472657-13.175781 0-.992187-.082032-1.992187-.242188-2.980469-.597656-3.746093-2.328125-7.328124-5.207031-10.207031-2.847657-2.847656-6.382813-4.574219-10.066407-5.1875-5.019531-.835937-10.308593.386719-14.527343 3.671875l11.402343-11.402344c3.640626-3.640624 5.46875-8.425781 5.46875-13.191406.007813-1.011718-.078124-2.03125-.246093-3.03125-.597657-3.714844-2.332031-7.285156-5.195313-10.148437-2.875-2.875-6.46875-4.617188-10.21875-5.207031-5.695312-.917969-11.753906.824218-16.160156 5.230468l-13.054688 13.054688c4.398438-4.402344 6.148438-10.460938 5.230469-16.160156-.589843-3.734376-2.324219-7.320313-5.207031-10.207032-7.273438-7.269531-19.082031-7.261718-26.367188.023438l-75.601562 75.601562-.210938-.296875c-3.832031-3.832031-8.347656-6.554687-13.164062-8.179687-5.703125-1.921875-11.816406-2.277344-17.6875-1.09375 4.726562 7.144531 11.335938 13.070312 19.390625 17.066406 2.234375 1.105469 4.523437 2.035156 6.859375 2.785156v93.746094c0 18.808594 15.289062 34.109375 34.078125 34.109375 2.261719 0 4.488281-.21875 6.65625-.648437 2.425781 4.957031 6.042969 9.320312 10.601563 12.613281 2.828124 2.0625 5.914062 3.640625 9.160156 4.734375l95.222656-95.222656c7.292969-7.292969 7.300781-19.085938.023438-26.363282zm0 0" fill="#ffae85" data-original="#ffae85" class=""></path><path xmlns="http://www.w3.org/2000/svg" d="m345.847656 296.855469v-65.796875c-1.597656 1.121094-3.121094 2.398437-4.550781 3.824218l-.210937.300782-75.601563-75.601563c-7.285156-7.285156-19.09375-7.292969-26.363281-.023437-2.886719 2.882812-4.621094 6.46875-5.210938 10.207031-.917968 5.695313.832032 11.757813 5.230469 16.15625l-13.054687-13.054687c-4.40625-4.40625-10.460938-6.148438-16.15625-5.230469-3.753907.589843-7.34375 2.332031-10.222657 5.210937-2.863281 2.863282-4.597656 6.429688-5.195312 10.148438-.164063.996094-.253907 2.015625-.246094 3.027344 0 4.765624 1.828125 9.550781 5.472656 13.195312l11.398438 11.398438c-4.21875-3.285157-9.503907-4.507813-14.523438-3.671876-3.6875.613282-7.21875 2.339844-10.066406 5.1875-2.878906 2.878907-4.613281 6.464844-5.210937 10.207032-.160157.992187-.242188 1.988281-.238282 2.980468-.003906 4.765626 1.828125 9.535157 5.46875 13.175782l29.957032 29.957031c-4.40625-4.40625-10.460938-6.148437-16.15625-5.230469-3.738282.589844-7.332032 2.332032-10.207032 5.207032-7.277344 7.28125-7.269531 19.074218.019532 26.367187l77.933593 77.929687c2.09375.398438 4.234375.601563 6.402344.601563 7.222656 0 14.128906-2.238281 19.941406-6.453125 1.480469-1.070312 2.882813-2.261719 4.164063-3.542969 6.433594-6.433593 9.976562-14.996093 9.976562-24.113281v-8.398438c1.046875.097657 2.109375.144532 3.171875.144532 18.789063 0 34.078125-15.300782 34.078125-34.109375zm0 0" fill="#ffae85" data-original="#ffae85" class=""></path><path xmlns="http://www.w3.org/2000/svg" d="m330.402344 132.335938v164.519531c0 10.3125-8.332032 18.65625-18.625 18.65625-.277344 0-.578125 0-.875-.019531-3.722656-.175782-7.171875-1.441407-10.003906-3.503907-.011719 0-.011719-.011719-.023438-.011719-4.675781-3.378906-7.726562-8.890624-7.726562-15.121093v42.363281c0 5.148438-2.082032 9.816406-5.449219 13.183594-.699219.703125-1.464844 1.351562-2.277344 1.9375-3.070313 2.226562-6.828125 3.535156-10.898437 3.535156-4.027344 0-7.75-1.277344-10.789063-3.449219-4.140625-2.957031-7.015625-7.5625-7.671875-12.871093v16.125c0 5.152343-2.09375 9.828124-5.460938 13.195312-.710937.722656-1.496093 1.382812-2.316406 1.96875-3.050781 2.207031-6.800781 3.503906-10.851562 3.503906-4.066406 0-7.839844-1.308594-10.910156-3.542968-4.675782-3.378907-7.726563-8.890626-7.726563-15.125v-18.460938c0 6.222656-3.046875 11.742188-7.726563 15.121094-3.058593 2.226562-6.820312 3.535156-10.898437 3.535156-10.285156 0-18.628906-8.355469-18.628906-18.65625v-106.917969l-.359375.0625c-5.417969 0-10.539063-1.269531-15.09375-3.523437-11.238282-5.574219-18.976563-17.183594-18.976563-30.597656v-49.855469c0-9.578125 3.800781-18.757813 10.558594-25.539063l15.578125-15.605468c4.503906-4.511719 7.789062-10.015626 9.632812-16.011719 1.15625-3.707031 1.742188-7.613281 1.742188-11.496094v-11.117187h127.148438v14.207031c0 3.183593.34375 6.542969 1.226562 9.609375 1.484375 5.90625 4.371094 11.417968 8.4375 16.0625 5.730469 6.542968 8.964844 15.125 8.964844 23.839844zm0 0" fill="#fedfc5" data-original="#fedfc5" class=""></path><path xmlns="http://www.w3.org/2000/svg" d="m330.402344 132.335938v164.519531c0 10.3125-8.332032 18.65625-18.625 18.65625-.277344 0-.578125 0-.875-.019531-3.722656-.175782-7.171875-1.441407-10.003906-3.503907l.316406-158.53125c0-.957031-.214844-2.472656-.617188-4.398437-7.109375-34.628906-36.335937-57.828125-71.683594-57.828125h-46.03125c1.15625-3.710938 1.742188-7.613281 1.742188-11.496094v-11.117187h127.148438v14.207031c0 3.183593.34375 6.542969 1.226562 9.609375 1.484375 5.90625 4.371094 11.417968 8.4375 16.0625 5.730469 6.542968 8.964844 15.125 8.964844 23.839844zm0 0" fill="#fecbaa" data-original="#fecbaa" class=""></path><path xmlns="http://www.w3.org/2000/svg" d="m320.039062 68.621094h-144.328124c-4.753907 0-8.609376-3.855469-8.609376-8.609375v-51.402344c0-4.753906 3.855469-8.609375 8.609376-8.609375h144.328124c4.753907 0 8.609376 3.855469 8.609376 8.609375v51.402344c0 4.753906-3.855469 8.609375-8.609376 8.609375zm0 0" fill="#83d9ff" data-original="#83d9ff" class=""></path><path xmlns="http://www.w3.org/2000/svg" d="m207.890625 34.3125c0-4.269531-3.453125-7.726562-7.714844-7.726562s-7.714843 3.457031-7.714843 7.726562c0 4.265625 3.453124 7.726562 7.714843 7.726562s7.714844-3.460937 7.714844-7.726562zm0 0" fill="#5186ff" data-original="#5186ff"></path><g xmlns="http://www.w3.org/2000/svg" fill="#fecbaa"><path d="m300.878906 210.757812v101.21875c-4.679687-3.378906-7.730468-8.890624-7.730468-15.125v42.363282c0 5.152344-2.078126 9.820312-5.449219 13.1875-.699219.703125-1.460938 1.351562-2.277344 1.9375v-143.582032c0-4.265624 3.464844-7.726562 7.726563-7.726562 4.265624 0 7.730468 3.460938 7.730468 7.726562zm0 0" fill="#fecbaa" data-original="#fecbaa" class=""></path><path d="m263.738281 210.757812v143.664063c-4.144531-2.957031-7.015625-7.5625-7.675781-12.867187v16.125c0 5.148437-2.089844 9.828124-5.460938 13.195312-.710937.722656-1.492187 1.378906-2.316406 1.96875v-162.085938c0-4.265624 3.460938-7.726562 7.726563-7.726562s7.726562 3.460938 7.726562 7.726562zm0 0" fill="#fecbaa" data-original="#fecbaa" class=""></path><path d="m226.523438 210.757812v162.042969c-4.675782-3.378906-7.726563-8.890625-7.726563-15.121093v-18.464844c0 6.222656-3.046875 11.746094-7.726563 15.125v-143.582032c0-4.265624 3.464844-7.726562 7.726563-7.726562 4.277344 0 7.726563 3.460938 7.726563 7.726562zm0 0" fill="#fecbaa" data-original="#fecbaa" class=""></path><path d="m181.546875 195.488281v36.8125l-.363281.058594c-5.417969 0-10.539063-1.265625-15.089844-3.519531v-33.351563c0-4.265625 3.460938-7.726562 7.726562-7.726562 4.273438 0 7.726563 3.460937 7.726563 7.726562zm0 0" fill="#fecbaa" data-original="#fecbaa" class=""></path></g></g></svg>