<svg xmlns="http://www.w3.org/2000/svg" version="1.1" xmlns:xlink="http://www.w3.org/1999/xlink" xmlns:svgjs="http://svgjs.com/svgjs" width="512" height="512" x="0" y="0" viewBox="0 0 512 512" style="enable-background:new 0 0 512 512" xml:space="preserve" class=""><g><path xmlns="http://www.w3.org/2000/svg" d="m173.203125 357.386719 11.132813 28.910156h27.121093l22.292969-54.203125zm0 0" fill="#f4af9d" data-original="#f4af9d"></path><path xmlns="http://www.w3.org/2000/svg" d="m338.796875 357.386719-11.132813 28.910156h-27.121093l-22.292969-54.203125zm0 0" fill="#f4af9d" data-original="#f4af9d"></path><path xmlns="http://www.w3.org/2000/svg" d="m305.976562 357.382812-17.152343 137.1875h-65.640625l-17.167969-137.1875 11.472656-25.289062 77.691407-3.550781.269531.734375zm0 0" fill="#515f75" data-original="#515f75" class=""></path><path xmlns="http://www.w3.org/2000/svg" d="m255.996094 351.96875h15.96875v142.601562h-15.96875zm0 0" fill="#3b485b" data-original="#3b485b" class=""></path><path xmlns="http://www.w3.org/2000/svg" d="m233.75 332.09375 61.699219-2.820312-.273438-.730469-77.6875 3.550781-11.472656 25.292969 17.164063 137.179687h16.261718l-17.164062-137.179687zm0 0" fill="#3b485b" data-original="#3b485b" class=""></path><path xmlns="http://www.w3.org/2000/svg" d="m338.804688 226.746094v130.640625h-32.820313v-5.421875h-99.960937v5.421875h-32.820313v-130.640625l38.554687-38.554688h88.488282zm0 0" fill="#515f75" data-original="#515f75" class=""></path><path xmlns="http://www.w3.org/2000/svg" d="m226.214844 188.191406h-14.457032l-38.554687 38.554688v130.640625h14.453125v-130.640625zm0 0" fill="#3b485b" data-original="#3b485b" class=""></path><path xmlns="http://www.w3.org/2000/svg" d="m212.078125 188.25 43.921875 54.617188 43.921875-54.617188" fill="#cccccc" data-original="#cccccc"></path><path xmlns="http://www.w3.org/2000/svg" d="m307.664062 83.664062v52.292969c0 28.878907-23.410156 52.292969-52.292968 52.292969-28.882813 0-52.292969-23.414062-52.292969-52.292969v-52.292969" fill="#f9c2af" data-original="#f9c2af" class=""></path><path xmlns="http://www.w3.org/2000/svg" d="m255 188.246094c-14.296875-.09375-27.222656-5.929688-36.609375-15.3125-9.460937-9.464844-15.3125-22.535156-15.3125-36.976563v-52.296875h23.542969v52.296875c0 14.441407 3.214844 27.511719 8.417968 36.976563 5.125 9.316406 12.167969 15.132812 19.960938 15.3125zm0 0" fill="#ea9e8f" data-original="#ea9e8f" class=""></path><path xmlns="http://www.w3.org/2000/svg" d="m294.703125 97.871094c-18.949219 6.828125-37.292969 4.527344-50.269531.914062 0 0-.003906 0-.003906-.003906-11.296876-3.148438-18.519532-7.300781-18.519532-7.300781s-4.769531 22.949219-22.832031 22.949219c0 0-12.015625-21.253907-11.640625-40.921876.195312-10.199218 8.605469-17.824218 18.164062-17.824218 1.785157 0 3.609376.261718 5.425782.832031 5.121094-13.75 18.644531-22.449219 33.285156-21.558594 2.28125.140625 4.578125.324219 6.878906.53125.441406.039063.886719.078125 1.328125.121094.042969.003906.089844.007813.136719.011719 23.898438 2.242187 48.105469 6.613281 62.332031-9.121094 0-.003906 23.507813 54.152344-24.285156 71.371094zm0 0" fill="#515f75" data-original="#515f75" class=""></path><path xmlns="http://www.w3.org/2000/svg" d="m248.3125 34.957031c2.28125.140625 4.578125.320313 6.878906.53125-21.085937-.890625-37.839844 45.550781-10.761718 63.292969-11.296876-3.148438-18.519532-7.300781-18.519532-7.300781s-4.773437 22.949219-22.832031 22.949219c0 0-12.019531-21.257813-11.640625-40.921876.195312-10.199218 8.605469-17.824218 18.164062-17.824218 1.785157 0 3.609376.261718 5.425782.828125 5.121094-13.746094 18.644531-22.445313 33.285156-21.554688zm0 0" fill="#3b485b" data-original="#3b485b" class=""></path><path xmlns="http://www.w3.org/2000/svg" d="m164.472656 109.265625c0 30.628906-6.800781 63.589844-17.703125 91.054687l-71.191406.570313-42.453125.34375c-11.101562-27.648437-18.054688-61.003906-18.054688-91.96875 0-70.351563 35.921876-101.660156 74.699219-101.660156 7.269531 0 14.4375 1.105469 21.292969 3.355469 29.695312 9.753906 53.410156 41.144531 53.410156 98.304687zm0 0" fill="#dd8c22" data-original="#dd8c22"></path><path xmlns="http://www.w3.org/2000/svg" d="m164.472656 109.265625c0 30.628906-6.800781 63.589844-17.703125 91.054687l-71.191406.570313c-11.03125-27.578125-17.925781-60.792969-17.925781-91.625 0-57.160156 23.714844-88.550781 53.410156-98.304687 29.695312 9.753906 53.410156 41.144531 53.410156 98.304687zm0 0" fill="#efa233" data-original="#efa233"></path><path xmlns="http://www.w3.org/2000/svg" d="m7.605469 357.386719 11.136719 28.910156h27.117187l22.292969-54.203125zm0 0" fill="#f4af9d" data-original="#f4af9d"></path><path xmlns="http://www.w3.org/2000/svg" d="m173.203125 357.386719-11.136719 28.910156h-27.121094l-22.292968-54.203125zm0 0" fill="#f4af9d" data-original="#f4af9d"></path><path xmlns="http://www.w3.org/2000/svg" d="m140.378906 357.382812-17.152344 137.1875h-65.640624l-17.167969-137.1875 11.472656-25.289062 77.691406-3.550781.269531.734375zm0 0" fill="#515f75" data-original="#515f75" class=""></path><path xmlns="http://www.w3.org/2000/svg" d="m90.398438 351.96875h15.972656v142.601562h-15.972656zm0 0" fill="#3b485b" data-original="#3b485b" class=""></path><path xmlns="http://www.w3.org/2000/svg" d="m68.152344 332.09375 61.699218-2.820312-.273437-.730469-77.6875 3.550781-11.472656 25.292969 17.164062 137.179687h16.261719l-17.164062-137.179687zm0 0" fill="#3b485b" data-original="#3b485b" class=""></path><path xmlns="http://www.w3.org/2000/svg" d="m173.207031 226.746094v130.640625h-32.820312v-5.421875h-99.960938v5.421875h-32.820312v-130.640625l38.558593-38.554688h88.484376zm0 0" fill="#515f75" data-original="#515f75" class=""></path><path xmlns="http://www.w3.org/2000/svg" d="m60.617188 188.191406h-14.457032l-38.554687 38.554688v130.640625h14.453125v-130.640625zm0 0" fill="#3b485b" data-original="#3b485b" class=""></path><path xmlns="http://www.w3.org/2000/svg" d="m46.480469 188.25 43.921875 54.617188 43.921875-54.617188" fill="#cccccc" data-original="#cccccc"></path><path xmlns="http://www.w3.org/2000/svg" d="m142.066406 93.804688v42.144531c0 28.886719-23.410156 52.304687-52.296875 52.304687-.121093 0-.242187 0-.363281-.007812h-.132812c-14.242188-.121094-27.128907-5.960938-36.476563-15.308594-9.460937-9.472656-15.320313-22.539062-15.320313-36.988281v-42.144531s9.03125-13.707032 23.550782-18.664063c8.082031-2.757813 17.863281-2.820313 28.742187 3.710937 6.5625-3.9375 12.714844-5.476562 18.351563-5.476562 20.480468 0 33.945312 20.429688 33.945312 20.429688zm0 0" fill="#f9c2af" data-original="#f9c2af" class=""></path><path xmlns="http://www.w3.org/2000/svg" d="m89.355469 188.246094h-.082031c-14.242188-.121094-27.128907-5.960938-36.476563-15.308594-9.460937-9.46875-15.320313-22.539062-15.320313-36.988281v-42.144531s9.03125-13.707032 23.550782-18.664063v60.820313c0 14.4375 3.214844 27.507812 8.414062 36.976562 5.113282 9.296875 12.136719 15.105469 19.914063 15.308594zm0 0" fill="#ea9e8f" data-original="#ea9e8f" class=""></path><path xmlns="http://www.w3.org/2000/svg" d="m338.796875 357.386719 11.136719 28.910156h27.121094l22.289062-54.203125zm0 0" fill="#b28344" data-original="#b28344"></path><path xmlns="http://www.w3.org/2000/svg" d="m504.394531 357.386719-11.136719 28.910156h-27.117187l-22.292969-54.203125zm0 0" fill="#b28344" data-original="#b28344"></path><path xmlns="http://www.w3.org/2000/svg" d="m471.574219 357.382812-17.152344 137.1875h-65.640625l-17.167969-137.1875 11.472657-25.289062 77.691406-3.550781.269531.734375zm0 0" fill="#515f75" data-original="#515f75" class=""></path><path xmlns="http://www.w3.org/2000/svg" d="m421.59375 351.96875h15.96875v142.601562h-15.96875zm0 0" fill="#3b485b" data-original="#3b485b" class=""></path><path xmlns="http://www.w3.org/2000/svg" d="m399.34375 332.09375 61.699219-2.820312-.273438-.730469-77.683593 3.550781-11.472657 25.292969 17.164063 137.179687h16.261718l-17.167968-137.179687zm0 0" fill="#3b485b" data-original="#3b485b" class=""></path><path xmlns="http://www.w3.org/2000/svg" d="m504.402344 226.746094v130.640625h-32.820313v-5.421875h-99.960937v5.421875h-32.820313v-130.640625l38.554688-38.554688h88.488281zm0 0" fill="#515f75" data-original="#515f75" class=""></path><path xmlns="http://www.w3.org/2000/svg" d="m391.808594 188.191406h-14.453125l-38.558594 38.554688v130.640625h14.457031v-130.640625zm0 0" fill="#3b485b" data-original="#3b485b" class=""></path><path xmlns="http://www.w3.org/2000/svg" d="m377.671875 188.25 43.925781 54.617188 43.921875-54.617188" fill="#cccccc" data-original="#cccccc"></path><path xmlns="http://www.w3.org/2000/svg" d="m473.261719 83.664062v52.292969c0 28.878907-23.414063 52.292969-52.292969 52.292969-28.882812 0-52.292969-23.414062-52.292969-52.292969v-52.292969" fill="#b28344" data-original="#b28344"></path><path xmlns="http://www.w3.org/2000/svg" d="m420.597656 188.246094c-14.296875-.09375-27.222656-5.929688-36.609375-15.3125-9.460937-9.464844-15.3125-22.535156-15.3125-36.976563v-52.296875h23.542969v52.296875c0 14.441407 3.214844 27.511719 8.417969 36.976563 5.121093 9.316406 12.167969 15.132812 19.960937 15.3125zm0 0" fill="#9e6c30" data-original="#9e6c30"></path><path xmlns="http://www.w3.org/2000/svg" d="m460.300781 97.871094c-18.949219 6.828125-37.292969 4.527344-50.269531.914062 0 0-.003906 0-.003906-.003906-11.296875-3.148438-18.519532-7.300781-18.519532-7.300781s-4.769531 22.949219-22.832031 22.949219c0 0-12.015625-21.253907-11.640625-40.921876.195313-10.199218 8.605469-17.824218 18.164063-17.824218 1.785156 0 3.609375.261718 5.425781.832031 5.121094-13.75 18.644531-22.449219 33.285156-21.558594 2.28125.140625 4.578125.324219 6.878906.53125.441407.039063.886719.078125 1.328126.121094.042968.003906.089843.007813.136718.011719 23.898438 2.242187 48.105469 6.613281 62.332032-9.121094 0-.003906 23.507812 54.152344-24.285157 71.371094zm0 0" fill="#515f75" data-original="#515f75" class=""></path><path xmlns="http://www.w3.org/2000/svg" d="m413.910156 34.957031c2.28125.140625 4.578125.320313 6.878906.53125-21.085937-.890625-37.839843 45.550781-10.761718 63.292969-11.296875-3.148438-18.519532-7.300781-18.519532-7.300781s-4.773437 22.949219-22.832031 22.949219c0 0-12.019531-21.257813-11.640625-40.921876.195313-10.199218 8.605469-17.824218 18.164063-17.824218 1.785156 0 3.609375.261718 5.425781.828125 5.121094-13.746094 18.644531-22.445313 33.285156-21.554688zm0 0" fill="#3b485b" data-original="#3b485b" class=""></path><path xmlns="http://www.w3.org/2000/svg" d="m504.394531 267.9375c4.199219 0 7.605469-3.40625 7.605469-7.605469v-33.582031c0-2.015625-.800781-3.953125-2.226562-5.378906l-38.558594-38.558594c-1.640625-1.640625-3.894532-2.386719-6.117188-2.164062h-4.308594c12.308594-10.980469 20.074219-26.945313 20.074219-44.695313v-41.015625c5.589844-4.699219 9.871094-10.417969 12.773438-17.136719 10.605469-24.554687-1.554688-53.125-2.078125-54.328125-1.027344-2.371094-3.191406-4.058594-5.742188-4.476562-2.550781-.417969-5.140625.484375-6.871094 2.402344-10.234374 11.320312-28.980468 9.398437-48.828124 7.367187-5.152344-.53125-10.480469-1.074219-15.746094-1.394531-15.984375-.972656-30.628906 7.171875-38.203125 20.71875-5.671875-.222656-11.289063 1.445312-16.054688 4.882812-6.632812 4.785156-10.527343 12.21875-10.683593 20.390625-.347657 18.238281 8.59375 37.097657 11.640624 42.976563v19.617187c0 16 6.230469 31.042969 17.542969 42.355469.808594.808594 1.636719 1.582031 2.480469 2.335938h-2.78125c-2.28125-.285157-4.636719.472656-6.335938 2.167968l-33.179687 33.183594-33.183594-33.183594c-1.640625-1.640625-3.894531-2.390625-6.113281-2.167968h-4.308594c12.304688-10.976563 20.074219-26.941407 20.074219-44.691407v-41.019531c5.589844-4.699219 9.871094-10.417969 12.769531-17.136719 10.605469-24.554687-1.550781-53.125-2.074218-54.328125-1.03125-2.371094-3.191407-4.058594-5.742188-4.476562-2.550781-.417969-5.140625.484375-6.875 2.402344-10.234375 11.320312-28.980469 9.398437-48.824219 7.367187-5.152343-.53125-10.480469-1.074219-15.746093-1.394531-15.984376-.972656-30.632813 7.171875-38.207032 20.71875-5.667968-.222656-11.285156 1.445312-16.050781 4.882812-6.632813 4.785156-10.527344 12.21875-10.683594 20.390625-.351562 18.238281 8.59375 37.097657 11.636719 42.976563v19.617187c0 16 6.230469 31.042969 17.542969 42.355469.808593.808594 1.640625 1.582031 2.484375 2.335938h-2.785156c-2.28125-.285157-4.636719.472656-6.332032 2.167968l-33.183594 33.183594-17.566406-17.566406c10.476563-28.140625 16.445313-60.339844 16.445313-89.164063 0-34.378906-8.496094-62.757812-24.566407-82.078125-14.585937-17.535156-35.089843-27.191406-57.738281-27.191406-22.644531 0-43.152343 9.65625-57.738281 27.191406-16.070312 19.316406-24.566406 47.699219-24.566406 82.074219 0 29.175781 6.089844 61.710937 16.78125 90.085937l-22.019532 22.023438c-1.425781 1.425781-2.226562 3.359375-2.226562 5.375v130.636719c0 .960937.183594 1.875.511719 2.71875v.007812l.011719.027344c.03125.082031.058593.164063.09375.246094l11.027343 28.640625c1.128907 2.933594 3.949219 4.871094 7.09375 4.871094h18.589844l12.710937 101.609374c.476563 3.804688 3.710938 6.660157 7.546876 6.660157h32.734374c.027344 0 .050782.003906.078126.003906h32.8125c3.835937 0 7.070312-2.855469 7.546874-6.660156l12.714844-101.613281h18.585938c3.148437 0 5.96875-1.9375 7.097656-4.871094l4.039062-10.496094 4.042969 10.496094c1.128907 2.933594 3.949219 4.871094 7.097657 4.871094h18.585937l4.316406 34.496093c.480469 3.847657 3.757813 6.660157 7.535157 6.660157.316406 0 .632812-.019532.953124-.058594 4.167969-.523438 7.125-4.324219 6.601563-8.488282l-8.375-66.9375h34.441406l-.003906 127.390626h-18.496094l-3.910156-31.257813c-.519531-4.164063-4.328125-7.117187-8.488281-6.601563-4.167969.523438-7.121094 4.324219-6.601563 8.492188l4.742188 37.914062c.476562 3.804688 3.710937 6.660157 7.546875 6.660157h32.734375c.027343 0 .050781.003906.078125.003906h32.8125c3.835937 0 7.070312-2.855469 7.546875-6.660156l12.714843-101.613281h18.585938c3.148438 0 5.96875-1.9375 7.097656-4.871094l4.039063-10.5 4.042969 10.5c1.128906 2.933594 3.949218 4.871094 7.09375 4.871094h18.59375l12.710937 101.609374c.476563 3.804688 3.710937 6.660157 7.546875 6.660157h32.734375c.027344 0 .050781.003906.078125.003906h32.8125c3.835938 0 7.070312-2.855469 7.546875-6.660156l12.714844-101.613281h18.582031c3.148438 0 5.96875-1.9375 7.097656-4.871094l10.996094-28.558594c.417969-.945312.65625-1.984375.65625-3.082031v-66.636719c0-4.199219-3.40625-7.605469-7.605469-7.605469s-7.605469 3.40625-7.605469 7.605469v59.03125h-17.609374v-83.640625c0-4.199219-3.402344-7.601563-7.601563-7.601563s-7.605469 3.402344-7.605469 7.601563v78.222656h-34.769531v-98.824219l37.101563-46.128906 30.484374 30.488282v30.433593c.003907 4.199219 3.40625 7.605469 7.605469 7.605469zm-125.175781 76.425781v-78.21875c0-4.199219-3.402344-7.605469-7.601562-7.605469-4.203126 0-7.605469 3.40625-7.605469 7.605469v83.636719h-17.609375v-119.882812l30.488281-30.488282 37.105469 46.140625v98.8125zm14.328125-148.507812h20.449219v25.429687zm-24.53125-130.554688c1.839844-1.328125 3.988281-2.015625 6.179687-2.015625 1.058594 0 2.125.160156 3.171876.488282 3.855468 1.199218 7.976562-.824219 9.386718-4.609376 3.957032-10.632812 14.285156-17.3125 25.691406-16.617187 4.953126.300781 10.121094.832031 15.121094 1.34375 18.453125 1.890625 37.410156 3.835937 52.132813-4.597656 2.109375 8.628906 3.738281 21.507812-1.050781 32.539062-2.28125 5.25-5.777344 9.5625-10.558594 13.03125-.222656.144531-.433594.300781-.636719.464844-3.0625 2.121094-6.632813 3.910156-10.730469 5.386719-31.574218 11.375-62.140625-5.667969-62.429687-5.832032-2.105469-1.207031-4.664063-1.324218-6.878907-.339843-2.21875.984375-3.835937 2.984375-4.351562 5.355469-.007812.046874-1.074219 4.863281-3.894531 9.425781-2.457031 3.972656-5.058594 5.839843-7.214844 6.71875-3.210937-6.835938-8.550781-20.128907-8.316406-32.394531.0625-3.34375 1.660156-6.386719 4.378906-8.347657zm20.351563 102.257813c-8.441407-8.441406-13.089844-19.664063-13.089844-31.605469v-14.980469c6.863281-1.992187 12.691406-6.761718 17.101562-14.101562 1.007813-1.671875 1.847656-3.332032 2.546875-4.894532 12.871094 5.328126 39.125 13.074219 66.953125 3.050782.945313-.34375 1.871094-.699219 2.777344-1.070313v31.996094c0 24.644531-20.046875 44.695313-44.6875 44.695313-11.9375 0-23.160156-4.648438-31.601562-13.089844zm-58.171876 182.222656h-17.609374v-83.636719c0-4.199219-3.40625-7.605469-7.605469-7.605469s-7.605469 3.40625-7.605469 7.605469v78.21875h-34.765625v-98.820312l37.097656-46.132813 30.488281 30.488282zm-125.175781-91.242188c-4.199219 0-7.605469 3.40625-7.605469 7.605469v83.636719h-17.609374v-119.882812l30.488281-30.488282 37.105469 46.140625v98.8125h-34.777344v-78.21875c0-4.199219-3.402344-7.605469-7.601563-7.605469zm57.589844-62.683593h20.441406l-20.441406 25.417969zm-15.210937 25.429687-20.449219-25.429687h20.449219zm-44.980469-155.984375c1.839843-1.328125 3.992187-2.015625 6.179687-2.015625 1.058594 0 2.128906.160156 3.175782.488282 3.855468 1.199218 7.976562-.824219 9.382812-4.609376 3.957031-10.632812 14.289062-17.3125 25.695312-16.617187 4.953126.300781 10.121094.832031 15.121094 1.34375 18.449219 1.890625 37.40625 3.835937 52.128906-4.597656 2.109376 8.628906 3.738282 21.507812-1.050781 32.539062-2.28125 5.25-5.777343 9.5625-10.558593 13.03125-.222657.144531-.433594.300781-.636719.464844-3.0625 2.121094-6.632813 3.910156-10.730469 5.386719-31.570312 11.375-62.140625-5.667969-62.429688-5.832032-2.113281-1.214843-4.679687-1.34375-6.90625-.34375-2.222656 1-3.832031 3.003907-4.328124 5.390626-.011719.042968-1.050782 4.671874-3.714844 9.105468-2.507813 4.171875-5.183594 6.109375-7.390625 7.011719-3.207031-6.835937-8.550781-20.128906-8.316407-32.398437.0625-3.34375 1.660157-6.386719 4.378907-8.347657zm20.351562 102.257813c-8.441406-8.441406-13.089843-19.664063-13.089843-31.605469v-14.980469c6.863281-1.992187 12.6875-6.761718 17.101562-14.101562 1.007812-1.671875 1.847656-3.332032 2.546875-4.894532 12.871094 5.328126 39.125 13.074219 66.953125 3.050782.945312-.34375 1.871094-.699219 2.777344-1.070313v31.996094c0 24.644531-20.046875 44.695313-44.6875 44.695313-11.9375 0-23.160156-4.648438-31.601563-13.089844zm-58.171875 182.222656h-17.609375v-83.636719c0-4.199219-3.402343-7.605469-7.605469-7.605469-4.199218 0-7.601562 3.40625-7.601562 7.605469v78.21875h-34.769531v-98.824219l37.097656-46.128906 30.488281 30.488282zm-107.421875-182.21875c-8.445312-8.453125-13.097656-19.679688-13.097656-31.613281v-39.695313c4.46875-5.808594 20.226563-23.214844 40.78125-10.882812 2.40625 1.441406 5.414063 1.445312 7.824219 0 4.859375-2.914063 9.714844-4.390625 14.4375-4.390625 12.960937 0 22.933594 11.015625 26.339844 15.328125v39.640625c0 24.589843-19.953126 44.601562-44.515626 44.699219h-.359374c-11.863282-.046876-23.015626-4.6875-31.410157-13.085938zm60.277344 28.292969-20.441406 25.417969v-25.417969zm-35.648437 0v25.429687l-20.453126-25.429687zm-60.132813-86.589844c0-30.777344 7.28125-55.796875 21.050781-72.347656 11.648438-14 28-21.710938 46.046875-21.710938 18.050781 0 34.40625 7.710938 46.050781 21.710938 13.769532 16.550781 21.050782 41.570312 21.050782 72.347656 0 24.859375-4.738282 52.417969-13.140625 77.257813l-3.710938-3.710938c-1.640625-1.640625-3.898437-2.390625-6.117187-2.164062h-4.304688c12.304688-10.980469 20.070313-26.949219 20.070313-44.699219v-42.144531c0-1.488282-.433594-2.941407-1.253907-4.183594-.640624-.972656-15.996093-23.847656-40.292968-23.847656-6.171875 0-12.324219 1.484374-18.347656 4.425781-13.894532-6.8125-28.226563-5.835938-41.699219 2.90625-10.484375 6.808593-16.691407 16.121093-16.949219 16.515625-.816406 1.242187-1.253906 2.695312-1.253906 4.183594v42.144531c0 15.992187 6.230468 31.035156 17.546875 42.363281.804687.804688 1.636719 1.578125 2.480469 2.335938h-2.78125c-2.28125-.289063-4.636719.46875-6.332032 2.164062l-4.660156 4.660156c-8.605469-25.09375-13.453125-53-13.453125-78.207031zm-7.464844 120.632813 30.488281-30.488282 37.109376 46.140625v98.8125h-34.777344v-78.21875c0-4.199219-3.40625-7.605469-7.605469-7.605469s-7.605469 3.40625-7.605469 7.605469v83.636719h-17.609375zm8.753907 148.792968-5.273438-13.699218h15.023438l1.714843 13.699218zm24.398437-19.121094h34.4375v127.390626h-18.5zm68.140625 127.394532h-18.492188v-127.394532h34.4375zm40.339844-108.273438h-11.460938l1.714844-13.699218h15.019531zm32.714844 0-5.273438-13.699218h15.027344l1.710937 13.699218zm92.542968 108.273438h-18.492187v-127.394532h34.433593zm40.335938-108.273438h-11.457032l1.710938-13.699218h15.023438zm32.71875 0-5.277344-13.699218h15.027344l1.714844 13.699218zm24.398437-19.121094h34.441407l-.003907 127.390626h-18.496093zm68.144531 127.394532h-18.492187v-127.394532h34.433594zm45.609376-121.972656-5.273438 13.699218h-11.460938l1.714844-13.699218zm-64.097657-169.136719h20.441407l-20.441407 25.417969zm0 0" fill="#000000" data-original="#000000" class=""></path></g></svg>