<svg xmlns="http://www.w3.org/2000/svg" version="1.1" xmlns:xlink="http://www.w3.org/1999/xlink" xmlns:svgjs="http://svgjs.com/svgjs" width="512" height="512" x="0" y="0" viewBox="0 0 512 512" style="enable-background:new 0 0 512 512" xml:space="preserve" class=""><g><g xmlns="http://www.w3.org/2000/svg"><path d="m501.108 392.904c-9.793 5.013-21.846 1.18-26.901-8.664h-.001c-30.666-59.761-112.086-145.436-218.207-145.436-95.172 0-179.749 70.492-218.207 145.437-5.059 9.807-17.107 13.678-26.922 8.636-9.814-5.042-13.698-17.066-8.671-26.888 44.186-86.281 141.355-167.185 253.8-167.185 128.24 0 220.086 101.352 253.8 167.185 5.033 9.832 1.142 21.883-8.691 26.915zm-493.337-214.8 44.544 40.184c8.25 7.443 20.892 6.698 28.247-1.454 7.398-8.202 6.748-20.848-1.454-28.247l-44.544-40.184c-8.199-7.397-20.845-6.749-28.247 1.454-7.398 8.202-6.748 20.848 1.454 28.247zm451.911 40.184 44.543-40.184c8.202-7.399 8.852-20.045 1.454-28.247-7.399-8.201-20.045-8.853-28.247-1.454l-44.543 40.184c-8.202 7.398-8.852 20.045-1.454 28.247 7.363 8.161 20.007 8.888 28.247 1.454zm-203.684-79.734c11.046 0 20-8.955 20-20v-60.054c0-11.045-8.954-20-20-20s-20 8.955-20 20v60.054c.001 11.046 8.955 20 20 20zm98.25 236.547c0 54.257-44.075 98.399-98.249 98.399s-98.249-44.142-98.249-98.399 44.075-98.399 98.249-98.399 98.249 44.142 98.249 98.399zm-39.999 0c0-32.201-26.13-58.399-58.249-58.399s-58.25 26.198-58.25 58.399 26.13 58.399 58.249 58.399 58.25-26.198 58.25-58.399z" fill="#000000" data-original="#000000" class=""></path></g></g></svg>