<svg xmlns="http://www.w3.org/2000/svg" version="1.1" xmlns:xlink="http://www.w3.org/1999/xlink" xmlns:svgjs="http://svgjs.com/svgjs" width="512" height="512" x="0" y="0" viewBox="0 0 512 512" style="enable-background:new 0 0 512 512" xml:space="preserve" class=""><g><path xmlns="http://www.w3.org/2000/svg" d="m460.691 256 39.63-68.667c3.572-6.188 3.572-13.812 0-20l-45.401-78.666c-3.571-6.188-10.171-10-17.314-10h-79.26l-39.631-68.667c-3.571-6.188-10.171-10-17.314-10h-90.802c-7.143 0-13.743 3.812-17.314 10l-39.631 68.667h-79.26c-7.143 0-13.743 3.812-17.314 10l-45.401 78.667c-3.572 6.188-3.572 13.812 0 20l39.63 68.666-39.63 68.667c-3.572 6.188-3.572 13.812 0 20l45.401 78.667c3.571 6.188 10.171 10 17.314 10h79.26l39.631 68.666c3.571 6.188 10.171 10 17.314 10h90.802c7.143 0 13.743-3.812 17.314-10l39.631-68.667h79.26c7.143 0 13.743-3.812 17.314-10l45.401-78.667c3.572-6.188 3.572-13.812 0-20zm-307.037 137.333h-67.717l-33.859-58.667 33.859-58.666h67.717l33.86 58.666c-4.112 7.125-29.734 51.518-33.86 58.667zm0-157.333h-67.717l-33.859-58.667 33.859-58.667h67.717c4.112 7.124 29.733 51.518 33.86 58.667zm136.205 236h-67.717l-33.86-58.666c4.112-7.124 29.733-51.518 33.86-58.667h67.717c4.112 7.124 29.733 51.518 33.86 58.667zm-101.577-216 33.859-58.667h67.718l33.859 58.667-33.859 58.667h-67.718zm101.577-98.667h-67.717c-4.112-7.124-29.733-51.518-33.86-58.667l33.859-58.666h67.717l33.86 58.666c-4.112 7.125-29.733 51.518-33.859 58.667zm136.204 236h-67.717c-4.112-7.124-29.733-51.518-33.86-58.667l33.86-58.666h67.717l33.859 58.667zm0-157.333h-67.717l-33.86-58.666c4.112-7.124 29.733-51.518 33.86-58.667h67.717l33.859 58.667z" fill="#000000" data-original="#000000" class=""></path></g></svg>