<svg xmlns="http://www.w3.org/2000/svg" version="1.1" xmlns:xlink="http://www.w3.org/1999/xlink" xmlns:svgjs="http://svgjs.com/svgjs" width="512" height="512" x="0" y="0" viewBox="0 0 512 512" style="enable-background:new 0 0 512 512" xml:space="preserve" class=""><g><g xmlns="http://www.w3.org/2000/svg"><path d="m386.073 295.25h-151.106c-4.143 0-7.5 3.358-7.5 7.5s3.357 7.5 7.5 7.5h151.106c4.143 0 7.5-3.358 7.5-7.5s-3.357-7.5-7.5-7.5zm0 113h-151.106c-4.143 0-7.5 3.358-7.5 7.5s3.357 7.5 7.5 7.5h151.106c4.143 0 7.5-3.358 7.5-7.5s-3.357-7.5-7.5-7.5zm0-30h-151.106c-4.143 0-7.5 3.358-7.5 7.5s3.357 7.5 7.5 7.5h151.106c4.143 0 7.5-3.358 7.5-7.5s-3.357-7.5-7.5-7.5zm0-113h-151.106c-4.143 0-7.5 3.358-7.5 7.5s3.357 7.5 7.5 7.5h151.106c4.143 0 7.5-3.358 7.5-7.5s-3.357-7.5-7.5-7.5zm50.29 26.965c4.143 0 7.5-3.358 7.5-7.5v-153.983c-.03-1.52-.529-3.715-2.196-5.303l-123.232-123.232c-1.247-1.121-2.825-2.197-5.304-2.197h-207.494c-20.678 0-37.5 16.822-37.5 37.5v437c0 20.678 16.822 37.5 37.5 37.5h300.727c20.678 0 37.5-16.822 37.5-37.5v-154.785c0-4.142-3.357-7.5-7.5-7.5s-7.5 3.358-7.5 7.5v154.785c0 12.407-10.094 22.5-22.5 22.5h-300.727c-12.406 0-22.5-10.093-22.5-22.5v-437c0-12.407 10.094-22.5 22.5-22.5h199.994v30h-173.661c-9.649 0-17.5 7.851-17.5 17.5v36.5c0 9.649 7.851 17.5 17.5 17.5h147.656c4.143 0 7.5-3.358 7.5-7.5s-3.357-7.5-7.5-7.5h-147.656c-1.379 0-2.5-1.122-2.5-2.5v-36.5c0-1.378 1.121-2.5 2.5-2.5h173.661v40.732c0 20.678 16.822 37.5 37.5 37.5h85.732v146.483c0 4.142 3.358 7.5 7.5 7.5zm-93.232-168.983c-12.406 0-22.5-10.093-22.5-22.5v-75.126l97.626 97.625h-75.126zm-160.164 255.018h-54c-7.995 0-14.5 6.505-14.5 14.5v54c0 7.995 6.505 14.5 14.5 14.5h54c7.995 0 14.5-6.505 14.5-14.5v-54c0-7.995-6.505-14.5-14.5-14.5zm-.5 68h-53v-53h53zm15-279.5c0-7.995-6.505-14.5-14.5-14.5h-54c-7.995 0-14.5 6.505-14.5 14.5v54c0 7.995 6.505 14.5 14.5 14.5h54c7.995 0 14.5-6.505 14.5-14.5zm-15 53.5h-53v-53h53zm203.606-68h-151.106c-4.143 0-7.5 3.358-7.5 7.5s3.357 7.5 7.5 7.5h151.106c4.143 0 7.5-3.358 7.5-7.5s-3.357-7.5-7.5-7.5zm0 30h-151.106c-4.143 0-7.5 3.358-7.5 7.5s3.357 7.5 7.5 7.5h151.106c4.143 0 7.5-3.358 7.5-7.5s-3.357-7.5-7.5-7.5zm-188.606 97.5c0-7.995-6.505-14.5-14.5-14.5h-54c-7.995 0-14.5 6.505-14.5 14.5v54c0 7.995 6.505 14.5 14.5 14.5h54c7.995 0 14.5-6.505 14.5-14.5zm-15 53.5h-53v-53h53z" fill="#000000" data-original="#000000"></path></g></g></svg>